# xmcd CD database file
#
# Track frame offsets:
#	150
#	18405
#	36833
#	49863
#	72719
#	85049
#	100503
#	112995
#	139006
#	150614
#	169380
#	188126
#	200711
#
# Disc length: 2951 seconds
#
# Revision: 6
# Processed by: cddbd v1.5.2PL0 Copyright (c) Steve Scherf et al.
# Submitted via: CDex 1.51
#
DISCID=af0b850d
DTITLE=Various Artist - Soul Kitchen OST [CD2)
DYEAR=2009
DGENRE=Soundtrack
TTITLE0=Burning Spear - Rated X
TTITLE1=Silly Walks Movement feat. Jan Delay - Soundhaudegen
TTITLE2=Locomondo - Frangosiriani
TTITLE3=Shantel - Manolis O Hasiklis
TTITLE4=Love Ravers - Mission Of Love
TTITLE5=Er France - Sing Song Girl
TTITLE6=Bad Boy Boogiez - Moon Shayn
TTITLE7=Steven Pfeffer - Arcilla
TTITLE8=Pavlos Sidiropoulos1966 Olympians - To Blues Tou Paliokaravou
TTITLE9=Steve Baker - Steve's La Paloma
TTITLE10=Turtle Bay Country Club - Sisters Kebab Dub
TTITLE11=Broke But Busy - Gang and Gaebe
TTITLE12=Hans Albers - Das letzte Hemd hat leider keine Taschen
EXTD=YEAR: 2009
EXTT0=
EXTT1=
EXTT2=
EXTT3=
EXTT4=
EXTT5=
EXTT6=
EXTT7=
EXTT8=
EXTT9=
EXTT10=
EXTT11=
EXTT12=
PLAYORDER=
